<svg xmlns="http://www.w3.org/2000/svg" width="108" height="104" viewBox="0 0 108 104">
  <metadata><?xpacket begin="﻿" id="W5M0MpCehiHzreSzNTczkc9d"?>
<x:xmpmeta xmlns:x="adobe:ns:meta/" x:xmptk="Adobe XMP Core 5.6-c138 79.159824, 2016/09/14-01:09:01        ">
   <rdf:RDF xmlns:rdf="http://www.w3.org/1999/02/22-rdf-syntax-ns#">
      <rdf:Description rdf:about=""/>
   </rdf:RDF>
</x:xmpmeta>
                                                                                                    
                                                                                                    
                                                                                                    
                                                                                                    
                                                                                                    
                                                                                                    
                                                                                                    
                                                                                                    
                                                                                                    
                                                                                                    
                                                                                                    
                                                                                                    
                                                                                                    
                                                                                                    
                                                                                                    
                                                                                                    
                                                                                                    
                                                                                                    
                                                                                                    
                                                                                                    
                           
<?xpacket end="w"?></metadata>
<defs>
    <style>
      .cls-1 {
        fill: #e2e2e2;
        fill-rule: evenodd;
      }
    </style>
  </defs>
  <path id="_copy_2" data-name="&quot; copy 2" class="cls-1" d="M504.639,4550.99q-20.874,17.94-29.491,31.83a70.567,70.567,0,0,0-12.25,39.91q0,13.005,6.352,21.97,6.805,10.32,19.056,10.31a20.246,20.246,0,0,0,14.745-6.05,19.747,19.747,0,0,0,6.125-14.57q0-22.425-27.222-22.42,0-27.345,29.037-53.8Zm-60.8,0q-40.833,35.43-40.834,71.74,0,13.005,5.9,21.52,6.807,10.755,19.056,10.76a21.184,21.184,0,0,0,15.2-5.83,19.52,19.52,0,0,0,6.125-14.79q0-10.77-8.621-16.59a30.01,30.01,0,0,0-18.6-5.83l-0.454-4.49q0-20.61,29.038-49.31Z" transform="translate(-403 -4551)"/>
</svg>
