<svg xmlns="http://www.w3.org/2000/svg" width="16.62" height="16.62" viewBox="0 0 16.62 16.62">
  <metadata><?xpacket begin="﻿" id="W5M0MpCehiHzreSzNTczkc9d"?>
<x:xmpmeta xmlns:x="adobe:ns:meta/" x:xmptk="Adobe XMP Core 5.6-c138 79.159824, 2016/09/14-01:09:01        ">
   <rdf:RDF xmlns:rdf="http://www.w3.org/1999/02/22-rdf-syntax-ns#">
      <rdf:Description rdf:about=""/>
   </rdf:RDF>
</x:xmpmeta>
                                                                                                    
                                                                                                    
                                                                                                    
                                                                                                    
                                                                                                    
                                                                                                    
                                                                                                    
                                                                                                    
                                                                                                    
                                                                                                    
                                                                                                    
                                                                                                    
                                                                                                    
                                                                                                    
                                                                                                    
                                                                                                    
                                                                                                    
                                                                                                    
                                                                                                    
                                                                                                    
                           
<?xpacket end="w"?></metadata>
<defs>
    <style>
      .cls-1 {
        fill: #f39c12;
        fill-rule: evenodd;
      }
    </style>
  </defs>
  <path id="user" class="cls-1" d="M1516.86,3777.41a15.26,15.26,0,0,0-4.83-1.92,11.978,11.978,0,0,0,1.99-4.25,8.9,8.9,0,0,0-1.33-6.79,4.731,4.731,0,0,0-7.38,0,8.9,8.9,0,0,0-1.33,6.79,12.116,12.116,0,0,0,1.98,4.25,15.268,15.268,0,0,0-4.82,1.92,1.035,1.035,0,0,0,.58,1.9h14.56A1.035,1.035,0,0,0,1516.86,3777.41Zm-5.64-2.57-0.17.22a2.506,2.506,0,0,1-4.1,0l-0.17-.22a8.873,8.873,0,0,1-1.86-6.58c0.29-2.22,1.56-4.54,4.08-4.54s3.79,2.32,4.08,4.54A8.917,8.917,0,0,1,1511.22,3774.84Zm-9.5,3.44a13.958,13.958,0,0,1,4.46-1.78l1.3-.28a2.6,2.6,0,0,0,3.04,0l1.3,0.28a14.066,14.066,0,0,1,4.46,1.78h-14.56Z" transform="translate(-1500.69 -3762.69)"/>
</svg>
