<svg xmlns="http://www.w3.org/2000/svg" width="16" height="10.5" viewBox="0 0 16 10.5">
  <metadata><?xpacket begin="﻿" id="W5M0MpCehiHzreSzNTczkc9d"?>
<x:xmpmeta xmlns:x="adobe:ns:meta/" x:xmptk="Adobe XMP Core 5.6-c138 79.159824, 2016/09/14-01:09:01        ">
   <rdf:RDF xmlns:rdf="http://www.w3.org/1999/02/22-rdf-syntax-ns#">
      <rdf:Description rdf:about=""/>
   </rdf:RDF>
</x:xmpmeta>
                                                                                                    
                                                                                                    
                                                                                                    
                                                                                                    
                                                                                                    
                                                                                                    
                                                                                                    
                                                                                                    
                                                                                                    
                                                                                                    
                                                                                                    
                                                                                                    
                                                                                                    
                                                                                                    
                                                                                                    
                                                                                                    
                                                                                                    
                                                                                                    
                                                                                                    
                                                                                                    
                           
<?xpacket end="w"?></metadata>
<defs>
    <style>
      .cls-1 {
        fill: #f09c15;
        fill-rule: evenodd;
      }
    </style>
  </defs>
  <path id="mail_copy" data-name="mail copy" class="cls-1" d="M1547,5635.25h-12a2,2,0,0,0-2,2v6.49a2.008,2.008,0,0,0,2,2.01h12a2.008,2.008,0,0,0,2-2.01v-6.49A2,2,0,0,0,1547,5635.25Zm-13,2.62,3.5,2.63-3.5,2.62v-5.25Zm14,5.87a1,1,0,0,1-1,1h-12a1,1,0,0,1-1-1l3.92-2.93,2.18,1.64a1.5,1.5,0,0,0,1.8,0l2.18-1.64,3.92,2.93h0Zm0-.62-3.5-2.62,3.5-2.63v5.25Zm-6.4-1.07a1.006,1.006,0,0,1-.6.2,0.984,0.984,0,0,1-.6-0.2l-2.07-1.55-0.41-.32-3.92-2.93h0a1,1,0,0,1,1-1h12a1,1,0,0,1,1,1Z" transform="translate(-1533 -5635.25)"/>
</svg>
