<svg xmlns="http://www.w3.org/2000/svg" width="17.94" height="17.94" viewBox="0 0 17.94 17.94">
  <metadata><?xpacket begin="﻿" id="W5M0MpCehiHzreSzNTczkc9d"?>
<x:xmpmeta xmlns:x="adobe:ns:meta/" x:xmptk="Adobe XMP Core 5.6-c138 79.159824, 2016/09/14-01:09:01        ">
   <rdf:RDF xmlns:rdf="http://www.w3.org/1999/02/22-rdf-syntax-ns#">
      <rdf:Description rdf:about=""/>
   </rdf:RDF>
</x:xmpmeta>
                                                                                                    
                                                                                                    
                                                                                                    
                                                                                                    
                                                                                                    
                                                                                                    
                                                                                                    
                                                                                                    
                                                                                                    
                                                                                                    
                                                                                                    
                                                                                                    
                                                                                                    
                                                                                                    
                                                                                                    
                                                                                                    
                                                                                                    
                                                                                                    
                                                                                                    
                                                                                                    
                           
<?xpacket end="w"?></metadata>
<defs>
    <style>
      .cls-1 {
        fill: #f09c15;
        fill-rule: evenodd;
      }
    </style>
  </defs>
  <path id="pen" class="cls-1" d="M1517.5,3950.48a4.769,4.769,0,0,0-3.33-1.44,3.623,3.623,0,0,0-2.61,1.05l-2.73,2.74c-0.01.01-.02,0.01-0.03,0.02a0.02,0.02,0,0,1-.01.02h0l-5.78,5.83a2.2,2.2,0,0,0-.57.95l-1.31,4.77a3.951,3.951,0,0,0-.09.58,1.963,1.963,0,0,0,1.96,1.96,3.912,3.912,0,0,0,.65-0.11l4.75-1.25a2.111,2.111,0,0,0,.95-0.57l8.55-8.61A4.184,4.184,0,0,0,1517.5,3950.48Zm-7.49,11.88a4.723,4.723,0,0,0-.4-1.47l5.29-5.29a2.735,2.735,0,0,1-.55,2.8c-0.01,0-.01.01-0.02,0.01l0.01,0.01-4.33,4.36C1510.01,3962.64,1510.02,3962.5,1510.01,3962.36Zm-0.69-1.98a4.537,4.537,0,0,0-.74-0.97,4.821,4.821,0,0,0-1.14-.83l5.34-5.34a3.756,3.756,0,0,1,1.17.8,3.972,3.972,0,0,1,.72.99Zm-2.41-2.07a4.281,4.281,0,0,0-1.6-.33l4.31-4.35a2.687,2.687,0,0,1,2.57-.6Zm-3.54,7.45a1.52,1.52,0,0,1-.38.07,0.828,0.828,0,0,1-.83-0.83,2.042,2.042,0,0,1,.06-0.32l0.59-2.13a2.646,2.646,0,0,1,2.65,2.67Zm2.64-.69a3.114,3.114,0,0,0-.94-2.15,3.188,3.188,0,0,0-2.11-.95l0.56-2.02a1.138,1.138,0,0,1,.22-0.38,3.2,3.2,0,0,1,4.05.63,3.144,3.144,0,0,1,.49,4.24,1.76,1.76,0,0,1-.2.09Zm11.1-9.44-0.95.95c0-.13.02-0.25,0.01-0.38a4.847,4.847,0,0,0-1.43-2.95,4.77,4.77,0,0,0-3.32-1.44l0.93-.93a2.512,2.512,0,0,1,1.82-.72,3.847,3.847,0,0,1,3.66,3.45A2.537,2.537,0,0,1,1517.11,3955.63Z" transform="translate(-1501.03 -3949.03)"/>
</svg>
