<svg xmlns="http://www.w3.org/2000/svg" width="99.969" height="100" viewBox="0 0 99.969 100">
  <metadata><?xpacket begin="﻿" id="W5M0MpCehiHzreSzNTczkc9d"?>
<x:xmpmeta xmlns:x="adobe:ns:meta/" x:xmptk="Adobe XMP Core 5.6-c138 79.159824, 2016/09/14-01:09:01        ">
   <rdf:RDF xmlns:rdf="http://www.w3.org/1999/02/22-rdf-syntax-ns#">
      <rdf:Description rdf:about=""/>
   </rdf:RDF>
</x:xmpmeta>
                                                                                                    
                                                                                                    
                                                                                                    
                                                                                                    
                                                                                                    
                                                                                                    
                                                                                                    
                                                                                                    
                                                                                                    
                                                                                                    
                                                                                                    
                                                                                                    
                                                                                                    
                                                                                                    
                                                                                                    
                                                                                                    
                                                                                                    
                                                                                                    
                                                                                                    
                                                                                                    
                           
<?xpacket end="w"?></metadata>
<defs>
    <style>
      .cls-1 {
        fill: #39b54a;
        fill-rule: evenodd;
      }
    </style>
  </defs>
  <path class="cls-1" d="M584.5,1255.02c5.576-.07,10.933-0.11,15.4,1.29,18.342,5.72,28.783,15.81,35.3,33.47,2.144,5.81,3.929,16.13,1.926,23.81-0.952,3.65-1.751,7.6-3.209,10.95A51.743,51.743,0,0,1,606,1351.57c-4.383,1.82-9.376,2.01-14.44,3.22a19.891,19.891,0,0,1-7.06-.32l-5.134-.33a59.756,59.756,0,0,1-12.194-4.18c-12-6.27-20.345-14.14-25.672-27.03-0.9-2.18-.875-4.06-1.605-6.44-1.369-4.46-2.713-12.54-1.283-18.34,0.925-3.76,1.458-7.82,2.888-11.27a51.749,51.749,0,0,1,26.955-28c3.346-1.46,7.271-2.25,10.911-3.22C580.922,1255.25,583.322,1255.85,584.5,1255.02Zm-11.231,8.04c0.063,1.7.808,2.42,1.283,3.55,1.345,3.18,2.258,6.37,3.53,9.33,0.755,1.75.076,3.1,2.567,3.22a7.469,7.469,0,0,0,1.605.64v-5.47a11.524,11.524,0,0,0,2.246-1.29v-2.25c0.367-1.08,2.455-3.33,1.926-4.18-0.493-2.21-1.956-3.95-2.889-5.8C579.859,1261.44,576.584,1262.61,573.269,1263.06Zm33.694,1.94c-0.322.36-1.024,0.58-1.284,0.96-0.427,1.29-.855,2.58-1.283,3.86-0.749.54-1.5,1.08-2.246,1.61v3.86l0.962,0.33c0.488,0.05,1.448-.69,2.567-0.97a7.159,7.159,0,0,0,1.284,3.54,3.389,3.389,0,0,1,1.605-.64c0.456-.94,1.73-3.15,1.283-3.86-0.337-1.11-.734-0.95-0.963-2.26a13.1,13.1,0,0,0,2.568-4.18ZM563,1308.44c-0.214-.96-0.428-1.93-0.642-2.89h-1.925a9.254,9.254,0,0,1,.642-2.58c-0.642-.11-1.284-0.21-1.926-0.32a9.9,9.9,0,0,1-1.283,1.29,0.9,0.9,0,0,1-.642-0.32,2.557,2.557,0,0,1-.963-1.93,4.375,4.375,0,0,0,.963-2.26l5.134-.96c0.089,1.56.268,2.44,1.926,2.57v-2.57c1.578-1.14,2.027-3.67,3.529-4.83l9.948-4.83c-1.465-1.82-2.595-7.83-4.492-8.69-0.457.64-.818,0.91-1.284,0.65a6.859,6.859,0,0,1-1.283-3.54h-3.53v0.64c-1.079,1.59-.13,4.96-1.284,6.44a1.352,1.352,0,0,1-.963.32c-1.436-2.24-4.628-3.39-5.134-6.44,0.382-.46.507-1.89,0.963-2.25,1.818-.32,3.637-0.65,5.455-0.97v-6.76l-3.53.33c-0.994,1.37-2.8,2.19-4.172,3.21a19.734,19.734,0,0,0-3.53,4.19l-1.6,1.29c-2.354,3.22-7.23,10.49-7.381,15.44,0.868,0.88.923,2.11,1.605,3.22,1.253,2.05,2.847,4.14,4.171,6.12,0.309,0.46.253,1.25,0.642,1.61,0.535,0.1,1.07.21,1.605,0.32,1.042,0.43,5.452,1.98,6.1,2.57,0.866,0.8,1.143,2.69,2.246,3.22,1.476,0.71.828-1.12,1.605,0.32-2.706,2.4-.645,5.48-0.321,9.01,1.25,0.75,3.369,2.37,3.53,4.19-0.986,1.29-.742,3.39-1.284,5.15q-1.445,5.46-2.888,10.94c0,0.56,1.083,2.06,1.284,2.9,1.231,0.57,2.724,1.05,4.171,1.61-0.7-1.14-1.807-1.87-2.246-3.22,1.232-.96,2.128-3.46,2.888-4.83l0.321-1.29h0.642c1.315-1.13,2.461-2.83,3.85-3.86,0.8-.59,2.215-1.29,2.889-1.93,0.729-.7.041-2.35,0.641-3.22,0.4-.58,2.936-0.62,3.851-0.64,0.368-1.52,3.609-6.9,3.209-7.41-1.459-1.44-4.211-1.63-5.776-2.89-0.856-.69-0.373-2.21-0.963-3.22-0.631-1.08-3.792-2.4-4.813-3.54q-3.69-.33-7.381-0.64a2.206,2.206,0,0,1-1.6,1.61A1.349,1.349,0,0,0,563,1308.44Zm49.1-40.23c-0.225,1.69-.988,1.64-1.283,3.22a4.383,4.383,0,0,1,.963,2.26h0.641a1.874,1.874,0,0,1,1.926-.33,0.758,0.758,0,0,1,.321.33h0.321v0.32h-0.321a8.9,8.9,0,0,1-2.247.96c0.214,0.65.428,1.29,0.642,1.93H612.1a1.347,1.347,0,0,0-.962-0.32c-0.321,1.07-.642,2.15-0.963,3.22a37.629,37.629,0,0,1-4.813-.32c-0.086-1.11-.134-1.54-0.963-1.93v0.32c-0.771.77-.533,1.14-0.321,2.25-2.771.16-1.98,1.88-3.53,2.9-1.34.88-2.829,0.06-3.53,1.61a15.676,15.676,0,0,1,2.246,3.86h-2.567a3.153,3.153,0,0,0-1.925-.32v4.5h0.642a7,7,0,0,0,3.209.65c0.855-1.4,1.711-2.79,2.567-4.19,1.1-.67,2.048-0.45,2.888-1.28a0.868,0.868,0,0,1,.642.32,13.539,13.539,0,0,1,2.888,3.86h0.642a3.6,3.6,0,0,1,1.283-1.29v-0.32c-1.415-.35-2.768-1.13-2.888-2.9a0.912,0.912,0,0,1-.321-0.64h0.642c0.566,0.59,2.911,1.71,3.209,2.25,0.976,1.79-.7,2.18,1.284,3.54V1293h0.321v-0.33a3.113,3.113,0,0,0,.641-1.93,1.341,1.341,0,0,1,.963.32c1.066,1.08.715,2.15,2.888,2.26,0.4,0.29,1.529.34,1.926,0.64a1.358,1.358,0,0,1,.32.97,5.4,5.4,0,0,0-.641,1.28,4.872,4.872,0,0,1-2.247.65c-0.969-.83-3.222-1.2-4.813-1.29-0.428.64-.856,1.29-1.284,1.93a0.735,0.735,0,0,1-.321-0.32,8.616,8.616,0,0,1-3.209-2.25,3.293,3.293,0,0,1-.641-2.26q-4.814.81-9.627,1.61c-0.438,1.45-3.371,4.81-4.493,5.8-0.214,2.57-.428,5.15-0.642,7.72,2.227,1.46,2.872,4.42,6.418,4.51,1.157-.84,5.446-0.65,7.06-0.65,0.523,2.59,2,5.04,2.567,7.4q-0.482,2.91-.963,5.8c0.88,3.04,3.324,5.8,3.851,9.33,1.48,0,3.9-.24,4.814-0.97,2.2-2.07,2.755-5.81,4.492-8.36,1.015-1.49,2.624-1.09,2.888-3.54-0.73-1-.661-3.56-0.641-5.15a11.084,11.084,0,0,0,5.776-8.69h-0.642a9.06,9.06,0,0,1-3.851,1.93l-4.492-10.62a0.791,0.791,0,0,0,.321-0.32h0.641c0.734,3.28,3.1,6.16,4.493,9.01,2.009-.92,7.572-3.81,8.664-5.47-1.212-.6-1.836-1.51-3.209-1.93a1.656,1.656,0,0,1-1.925.64,5.8,5.8,0,0,1-1.284-3.22h0.642v-0.32h0.321v0.32c1.666,0.83,2.651,1.66,5.134,1.93,0.043-3.33-1.9-10.94-3.53-12.55-0.547.57-.917,0.45-1.283,1.29,1.189,0.87,1.521,2.89,1.6,4.83l-3.209-.33v-0.64c1.168-1.49-.207-3.1-0.642-4.83,1.149-.47,2.59-0.84,2.889-2.25-1.347-1.37-1.8-3.51-2.889-5.15a33.8,33.8,0,0,0-7.7-8.05C615.368,1270.61,614.405,1268.61,612.1,1268.21Zm-17.97,8.69h1.925c0.178-.92.183-1.23,0.963-1.61-0.038,1.04-.1,2.34.321,2.9,0.686-.68,1.333-0.41,2.246-0.96a12.582,12.582,0,0,0,.963-1.29c-0.307-1.49-2.357-5.61-3.53-6.12a2.766,2.766,0,0,1-1.283.97C595.661,1273.81,594.192,1273.62,594.127,1276.9Zm21.821,9.02c1.158,0.29,5.693,2.61,6.1,3.54h-0.321a3.931,3.931,0,0,1-.641,1.28c-2.522-.54-3.4-0.32-6.1,0a1.967,1.967,0,0,0-.642-1.28C614.7,1287.94,615.55,1287.38,615.948,1285.92Zm9.948,34.75c-2.641,2.8-3.015,1.23-2.888,7.08a0.758,0.758,0,0,1,.321.33c0.969,0.03.888,0.26,1.283,0C625.781,1326.76,627.154,1322.31,625.9,1320.67Z" transform="translate(-538 -1255)"/>
</svg>
