<svg xmlns="http://www.w3.org/2000/svg" width="108.03" height="103.94" viewBox="0 0 108.03 103.94">
  <metadata><?xpacket begin="﻿" id="W5M0MpCehiHzreSzNTczkc9d"?>
<x:xmpmeta xmlns:x="adobe:ns:meta/" x:xmptk="Adobe XMP Core 5.6-c138 79.159824, 2016/09/14-01:09:01        ">
   <rdf:RDF xmlns:rdf="http://www.w3.org/1999/02/22-rdf-syntax-ns#">
      <rdf:Description rdf:about=""/>
   </rdf:RDF>
</x:xmpmeta>
                                                                                                    
                                                                                                    
                                                                                                    
                                                                                                    
                                                                                                    
                                                                                                    
                                                                                                    
                                                                                                    
                                                                                                    
                                                                                                    
                                                                                                    
                                                                                                    
                                                                                                    
                                                                                                    
                                                                                                    
                                                                                                    
                                                                                                    
                                                                                                    
                                                                                                    
                                                                                                    
                           
<?xpacket end="w"?></metadata>
<defs>
    <style>
      .cls-1 {
        fill: #e2e2e2;
        fill-rule: evenodd;
      }
    </style>
  </defs>
  <path id="_copy" data-name="&quot; copy" class="cls-1" d="M1035.33,4924.98q20.88-17.925,29.5-31.82a70.449,70.449,0,0,0,12.25-39.88q0-12.99-6.35-21.95-6.81-10.32-19.06-10.31a20.256,20.256,0,0,0-14.75,6.05,19.729,19.729,0,0,0-6.13,14.56q0,22.41,27.23,22.41,0,27.315-29.04,53.77Zm60.82,0q40.845-35.4,40.84-71.7,0-12.99-5.9-21.51-6.81-10.74-19.06-10.75a21.173,21.173,0,0,0-15.2,5.83,19.462,19.462,0,0,0-6.13,14.78q0,10.755,8.62,16.58a30.038,30.038,0,0,0,18.61,5.83l0.45,4.48q0,20.595-29.04,49.29Z" transform="translate(-1028.97 -4821.03)"/>
</svg>
